<?xml version="1.0" standalone="no"?><!DOCTYPE svg PUBLIC "-//W3C//DTD SVG 1.1//EN" "http://www.w3.org/Graphics/SVG/1.1/DTD/svg11.dtd"><svg t="1764815829878" class="icon" viewBox="0 0 1024 1024" version="1.1" xmlns="http://www.w3.org/2000/svg" p-id="7707" id="mx_n_1764815829879" xmlns:xlink="http://www.w3.org/1999/xlink" width="200" height="200"><path d="M512 1017.756098c279.32722 0 505.756098-226.428878 505.756098-505.756098S791.32722 6.243902 512 6.243902 6.243902 232.67278 6.243902 512 232.67278 1017.756098 512 1017.756098z m-68.682927-468.667318a74.926829 74.926829 0 1 1 32.118634 21.404098 435.99922 435.99922 0 0 0-132.570536 219.360781l-36.364488-9.066147a473.337756 473.337756 0 0 1 136.841366-231.698732zM512 980.292683c-258.622439 0-468.292683-209.670244-468.292683-468.292683S253.377561 43.707317 512 43.707317s468.292683 209.670244 468.292683 468.292683-209.670244 468.292683-468.292683 468.292683z m125.302634-612.327024a190.439024 190.439024 0 0 0-311.221073 206.173658l-34.716098 14.086244A226.179122 226.179122 0 0 1 274.731707 502.634146a227.902439 227.902439 0 1 1 190.439025 224.830439l6.119024-36.963902a190.439024 190.439024 0 0 0 166.012878-322.535024z" fill="#11d9db" p-id="7708"></path></svg>